# AST/ASF file generated using VICON BodyLanguage
# -----------------------------------------------
:version 1.10
:name VICON
:units
  mass 1.0
  length 0.45
  angle deg
:documentation
   .ast/.asf automatically generated from VICON data using
   VICON BodyBuilder and BodyLanguage model FoxedUp or BRILLIANT.MOD
:root
   order TX TY TZ RX RY RZ
   axis XYZ
   position 0 0 0  
   orientation 0 0 0 
:bonedata
  begin
     id 1 
     name lhipjoint
     direction 0.567725 -0.736092 0.368589 
     length 2.42353 
     axis 0 0 0  XYZ
  end
  begin
     id 2 
     name lfemur
     direction 0.34202 -0.939693 0  
     length 7.24894  
     axis 0 0 20  XYZ
    dof rx ry rz
    limits (-160.0 20.0)
           (-70.0 70.0)
           (-60.0 70.0)
  end
  begin
     id 3 
     name ltibia
     direction 0.34202 -0.939693 0   
     length 7.6997   
     axis 0 0 20   XYZ
    dof rx
    limits (-10.0 170.0)
  end
  begin
     id 4 
     name lfoot
     direction 0.100767 -0.276854 0.955614   
     length 2.37556   
     axis -90 7.62852e-016 20   XYZ
    dof rx rz
    limits (-45.0 90.0)
           (-70.0 20.0)
  end
  begin
     id 5 
     name ltoes
     direction 1.53592e-011 -4.21894e-011 1   
     length 1.18363   
     axis -90 7.62852e-016 20   XYZ
    dof rx
    limits (-90.0 20.0)
  end
  begin
     id 6 
     name rhipjoint
     direction -0.556459 -0.742938 0.372017   
     length 2.4012  
     axis 0 0 0  XYZ 
  end
  begin
     id 7 
     name rfemur
     direction -0.34202 -0.939693 0   
     length 7.5119   
     axis 0 0 -20   XYZ
    dof rx ry rz
    limits (-160.0 20.0)
           (-70.0 70.0)
           (-70.0 60.0)
  end
  begin
     id 8 
     name rtibia
     direction -0.34202 -0.939693 0   
     length 7.50155   
     axis 0 0 -20   XYZ
    dof rx
    limits (-10.0 170.0)
 end
 begin
     id 9 
     name rfoot
     direction -0.118427 -0.325376 0.938139   
     length 2.32487  
     axis -90 -7.62852e-016 -20   XYZ
    dof rx rz
    limits (-45.0 90.0)
           (-20.0 70.0)
  end
  begin
     id 10 
     name rtoes
     direction -1.53525e-011 -4.21868e-011 1   
     length 1.15233   
     axis -90 -7.62852e-016 -20   XYZ
    dof rx
    limits (-90.0 20.0)
  end
  begin
     id 11 
     name lowerback
     direction 0.0287568 0.999577 -0.00434502   
     length 2.15243   
     axis 0 0 0   XYZ
    dof rx ry rz
    limits (-20.0 45.0)
           (-30.0 30.0)
           (-30.0 30.0)
  end
  begin
     id 12 
     name upperback
     direction 0.0294009 0.99956 0.00404628   
     length 2.15427   
     axis 0 0 0   XYZ
    dof rx ry rz
    limits (-20.0 45.0)
           (-30.0 30.0)
           (-30.0 30.0)
  end
  begin
     id 13 
     name thorax
     direction 0.0151014 0.999868 0.0059419   
     length 2.14898   
     axis 0 0 0   XYZ
    dof rx ry rz
    limits (-20.0 45.0)
           (-30.0 30.0)
           (-30.0 30.0)
  end
  begin
     id 14 
     name lowerneck
     direction -0.0249197 0.989906 0.139515   
     length 1.6861   
     axis 0 0 0   XYZ
    dof rx ry rz
    limits (-20.0 45.0)
           (-30.0 30.0)
           (-30.0 30.0)
  end
  begin
     id 15 
     name upperneck
     direction 0.0438463 0.988795 -0.142693   
     length 1.71276   
     axis 0 0 0   XYZ
    dof rx ry rz
    limits (-20.0 45.0)
           (-30.0 30.0)
           (-30.0 30.0)
  end
  begin
     id 16
     name head
     direction 0.0148499 0.997845 -0.0639186  
     length 1.7209  
     axis 0 0 0   XYZ
    dof rx ry rz
    limits (-20.0 45.0)
           (-30.0 30.0)
           (-30.0 30.0)
  end
  begin
     id 17 
     name lclavicle
     direction 0.940298 0.323464 -0.105876  
     length 3.9048  
     axis 0 0 0   XYZ
    dof ry rz
    limits (-20.0 10.0)
           (0.0 20.0)
  end
  begin
     id 18 
     name lhumerus
     direction 1 -4.48954e-011 -4.9675e-028   
     length 4.6851   
     axis 180 -30 -90   XYZ
    dof rx ry rz
    limits (-60.0 90.0)
           (-90.0 90.0)
           (-90.0 90.0)
  end
  begin
     id 19
     name lradius
     direction 1 -4.48992e-011 -1.03359e-026   
     length 3.39626   
     axis 180 -30 -90   XYZ
    dof rx
    limits (-10.0 170.0)
  end
  begin
     id 20
     name lwrist
     direction 1 -4.48906e-011 -1.67336e-026   
     length 1.69813   
     axis 9.90442e-015 90 90   XYZ
    dof ry
    limits (-180.0 0.0)
 end
  begin
     id 21 
     name lhand
     direction 1 -4.49006e-011 -3.34673e-026   
     length 0.486078   
     axis 2.1355e-014 90 90   XYZ
    dof rx rz
    limits (-90.0 90.0)
           (-45.0 45.0)
  end
  begin
     id 22 
     name lfingers
     direction 1 -4.48992e-011 -6.69345e-026   
     length 0.391889   
     axis 4.27099e-014 90 90   XYZ
    dof rx
    limits (0.0 90.0)
  end
  begin
     id 23
     name lthumb
     direction 0.707107 -6.34926e-011 0.707107   
     length 0.562676   
     axis -90 45 2.85299e-015   XYZ
    dof rx rz
    limits (-45.0 45.0)
           (-45.0 45.0)
  end
  begin
     id 24 
     name rclavicle
     direction -0.882459 0.414895 -0.221648   
     length 3.44646  
     axis 0 0 0   XYZ 
    dof ry rz
    limits (-10.0 20.0)
           (-20.0 0.0)
  end
  begin
     id 25 
     name rhumerus
     direction -1 -4.48962e-011 -2.37984e-027  
     length 5.55576   
     axis 180 30 90   XYZ
    dof rx ry rz
    limits (-90.0 60.0)
           (-90.0 90.0)
           (-90.0 90.0)
  end
  begin
     id 26 
     name rradius
     direction -1 -4.48982e-011 -6.86791e-027   
     length 3.32774   
     axis 180 30 90   XYZ
    dof rx
    limits (-10.0 170.0)
  end
  begin
     id 27 
     name rwrist
     direction -1 -4.48961e-011 -1.67336e-026   
     length 1.66387   
     axis 9.90442e-015 -90 -90   XYZ
    dof ry
    limits (-180.0 0.0)
  end
  begin
     id 28
     name rhand
     direction -1 -4.4897e-011 -3.34673e-026   
     length 0.507628   
     axis 2.1355e-014 -90 -90   XYZ
    dof rx rz
    limits (-90.0 90.0)
           (-45.0 45.0)
  end
  begin
     id 29
     name rfingers
     direction -1 -4.48854e-011 -6.69345e-026   
     length 0.409263   
     axis 4.27099e-014 -90 -90   XYZ
    dof rx
    limits (0.0 90.0)
  end
  begin
     id 30
     name rthumb
     direction -0.707107 -6.34913e-011 0.707107   
     length 0.587622   
     axis -90 -45 -2.85299e-015   XYZ
    dof rx rz
    limits (-45.0 45.0)
           (-45.0 45.0)
  end
:hierarchy
  begin
    root lhipjoint rhipjoint lowerback
    lhipjoint lfemur
    lfemur ltibia
    ltibia lfoot
    lfoot ltoes
    rhipjoint rfemur
    rfemur rtibia
    rtibia rfoot
    rfoot rtoes
    lowerback upperback
    upperback thorax
    thorax lowerneck lclavicle rclavicle
    lowerneck upperneck
    upperneck head
    lclavicle lhumerus
    lhumerus lradius
    lradius lwrist
    lwrist lhand lthumb
    lhand lfingers
    rclavicle rhumerus
    rhumerus rradius
    rradius rwrist
    rwrist rhand rthumb
    rhand rfingers
  end

#!OML:ASF E:\motion texture\Top Level 1\Subject 1\Session 1\male.ASF
:FULLY-SPECIFIED
:DEGREES
1
root 42.6063 17.5062 5.1947 90.4149 -81.2096 -80.4131
lowerback -0.269968 0.724107 6.22093
upperback -0.419456 0.87571 3.72451
thorax -0.242093 0.38615 0.346885
lowerneck -20.611 -1.31853 -6.9925
upperneck 14.6655 -0.965393 6.29979
head 7.97899 -0.213163 3.13579
rclavicle -3.77691e-015 -4.73108e-014
rhumerus -22.2266 5.69176 -86.4866
rradius 36.6545
rwrist 9.33365
rhand -19.7772 -28.4361
rfingers 7.12502
rthumb 6.55486 -58.3147
lclavicle -3.77691e-015 -4.73108e-014
lhumerus -29.3945 16.3042 83.7401
lradius 34.4894
lwrist -20.2761
lhand -8.96668 20.3412
lfingers 7.12502
lthumb 16.9785 49.6192
rfemur -6.51692 2.54804 33.5317
rtibia 17.2778
rfoot -17.4537 -12.11
rtoes 16.7228
lfemur -41.0647 5.48939 -6.82683
ltibia 54.6891
lfoot -6.04579 4.3745
ltoes -32.5947
2
root 42.5401 17.5057 5.19067 89.7037 -81.3101 -79.5255
lowerback -0.283209 0.702029 6.2328
upperback -0.485652 0.85312 3.6082
thorax -0.302024 0.374054 0.220233
lowerneck -20.7096 -1.31994 -6.96741
upperneck 14.645 -0.97067 6.31731
head 7.98928 -0.210808 3.13732
rclavicle 6.11263e-015 1.49089e-014
rhumerus -22.2362 6.058 -86.7256
rradius 37.2051
rwrist 9.26094
rhand -17.8192 -28.358
rfingers 7.12502
rthumb 8.4448 -58.1692
lclavicle 6.11263e-015 1.49089e-014
lhumerus -29.8021 16.3532 83.5202
lradius 35.0016
lwrist -19.6529
lhand -8.81648 20.6111
lfingers 7.12502
lthumb 17.1231 49.8765
rfemur -6.33261 2.45456 33.409
rtibia 17.0246
rfoot -17.6322 -12.1417
rtoes 16.618
lfemur -41.462 5.39836 -6.92895
ltibia 53.3106
lfoot -5.85472 4.94654
ltoes -33.0282
3
root 42.4716 17.4996 5.18754 91.0083 -81.1901 -80.6305
lowerback -0.295084 0.778814 6.46297
upperback -0.583643 0.959513 3.56688
thorax -0.387605 0.422273 0.0500157
lowerneck -20.692 -1.29258 -6.9028
upperneck 14.5892 -0.936556 6.2413
head 7.96442 -0.198537 3.10412
rclavicle 7.90169e-015 1.8487e-014
rhumerus -22.4197 6.58515 -87.0053
rradius 37.744
rwrist 9.77726
rhand -16.4931 -28.3654
rfingers 7.12502
rthumb 9.72444 -58.1209
lclavicle 7.90169e-015 1.8487e-014
lhumerus -30.2652 16.4124 83.3161
lradius 35.5036
lwrist -18.9263
lhand -8.81589 20.91
lfingers 7.12502
lthumb 17.1237 50.1754
rfemur -6.22973 2.57549 33.566
rtibia 16.8876
rfoot -17.8509 -12.0642
rtoes 16.4927
lfemur -41.8068 5.5643 -6.6829
ltibia 51.7861
lfoot -5.61379 5.34967
ltoes -33.3886
4
root 42.3992 17.498 5.18371 89.9564 -81.3642 -79.4217
lowerback -0.398883 0.763826 6.35197
upperback -0.582826 0.934509 3.44501
thorax -0.32945 0.413564 -0.0126899
lowerneck -20.866 -1.32512 -6.95231
upperneck 14.5942 -0.979386 6.36684
head 7.99968 -0.206321 3.15087
rclavicle -9.93923e-017 -4.49253e-014
rhumerus -22.3395 6.94856 -87.2177
rradius 38.4736
rwrist 9.25397
rhand -15.2095 -28.6098
rfingers 7.12502
rthumb 10.9627 -58.3036
lclavicle -9.93923e-017 -4.49253e-014
lhumerus -30.5727 16.4084 83.1796
lradius 36.0147
lwrist -18.1908
lhand -8.86862 20.8974
lfingers 7.12502
lthumb 17.0729 50.1672
rfemur -5.97213 2.52922 33.3713
rtibia 16.5778
rfoot -18.0193 -12.1826
rtoes 16.5067
lfemur -42.0794 5.30025 -6.83334
ltibia 50.1878
lfoot -5.45459 5.78603
ltoes -32.9391
5
root 42.3248 17.4936 5.18528 91.4427 -81.4165 -80.7951
lowerback -0.216099 0.865631 6.76823
upperback -0.729414 1.10265 3.11441
thorax -0.561902 0.489425 -0.586625
lowerneck -20.834 -1.32729 -6.80668
upperneck 14.5853 -1.05335 6.49223
head 7.99681 -0.220958 3.15991
rclavicle -6.83322e-015 1.39149e-014
rhumerus -22.702 7.22832 -87.7608
rradius 39.3172
rwrist 9.19527
rhand -13.9433 -28.6885
rfingers 7.12502
rthumb 12.1837 -58.3137
lclavicle -6.83322e-015 1.39149e-014
lhumerus -31.0957 16.1113 82.6969
lradius 36.5249
lwrist -17.4614
lhand -8.77086 20.9685
lfingers 7.12502
lthumb 17.167 50.2301
rfemur -5.73772 2.64478 33.3212
rtibia 16.4221
rfoot -18.1294 -12.1472
rtoes 16.1999
lfemur -42.1468 5.32896 -6.77253
ltibia 48.4191
lfoot -5.11741 6.32081
ltoes -32.6872
